<svg width="28" height="23" viewBox="0 0 28 23" fill="none" xmlns="http://www.w3.org/2000/svg">
<path d="M24.7752 3.45839H20.5369L19.5271 0.692675C19.4574 0.503425 19.3295 0.339839 19.1611 0.224263C18.9926 0.108688 18.7918 0.0467586 18.586 0.0469364H9.0247C8.60398 0.0469364 8.22689 0.305841 8.08665 0.692675L7.07381 3.45839H2.83544C1.45797 3.45839 0.342285 4.54883 0.342285 5.89514V19.7846C0.342285 21.1309 1.45797 22.2214 2.83544 22.2214H24.7752C26.1527 22.2214 27.2684 21.1309 27.2684 19.7846V5.89514C27.2684 4.54883 26.1527 3.45839 24.7752 3.45839ZM13.8053 17.3479C11.0504 17.3479 8.81902 15.167 8.81902 12.4744C8.81902 9.78175 11.0504 7.60086 13.8053 7.60086C16.5603 7.60086 18.7916 9.78175 18.7916 12.4744C18.7916 15.167 16.5603 17.3479 13.8053 17.3479ZM10.8135 12.4744C10.8135 13.2499 11.1287 13.9936 11.6898 14.542C12.2509 15.0904 13.0119 15.3985 13.8053 15.3985C14.5988 15.3985 15.3598 15.0904 15.9208 14.542C16.4819 13.9936 16.7971 13.2499 16.7971 12.4744C16.7971 11.6988 16.4819 10.9551 15.9208 10.4067C15.3598 9.85834 14.5988 9.55026 13.8053 9.55026C13.0119 9.55026 12.2509 9.85834 11.6898 10.4067C11.1287 10.9551 10.8135 11.6988 10.8135 12.4744Z" fill="white"/>
</svg>
