<svg width="26" height="23" viewBox="0 0 26 23" fill="none" xmlns="http://www.w3.org/2000/svg">
<path fill-rule="evenodd" clip-rule="evenodd" d="M17.5857 18.0501C18.0274 17.5794 18.3102 16.9819 18.3941 16.3419L23.2105 18.4821C23.4463 18.5872 23.7046 18.6317 23.9619 18.6115C24.2192 18.5913 24.4674 18.5072 24.6839 18.3667C24.9004 18.2262 25.0784 18.0338 25.2016 17.807C25.3248 17.5803 25.3895 17.3263 25.3896 17.0682V5.51181C25.3893 5.25392 25.3247 5.00016 25.2016 4.77357C25.0784 4.54699 24.9006 4.35474 24.6843 4.21429C24.468 4.07384 24.2201 3.98962 23.963 3.96929C23.7059 3.94895 23.4478 3.99315 23.2121 4.09785L18.3941 6.23815C18.2957 5.49336 17.9299 4.80973 17.365 4.31456C16.8 3.81939 16.0743 3.54643 15.323 3.54652H7.22645L17.5872 18.0501H17.5857ZM1.92216 4.11179C1.51674 4.39799 1.18599 4.77736 0.95772 5.218C0.72945 5.65864 0.610341 6.14765 0.610413 6.64391V15.9361C0.610413 16.7576 0.936744 17.5454 1.51762 18.1263C2.09849 18.7072 2.88633 19.0335 3.70781 19.0335H12.5787L1.92216 4.11334V4.11179ZM17.0158 22.58L1.52879 0.898244L2.78943 0L18.2764 21.6818L17.0158 22.58Z" fill="#FF004D"/>
</svg>
