<svg width="40" height="40" viewBox="0 0 46 46" fill="none" xmlns="http://www.w3.org/2000/svg">
<path d="M40.6443 28.8486L36.5043 27.2057C35.9092 26.9688 35.2578 26.911 34.6302 27.0394C34.0027 27.1678 33.4263 27.4769 32.9721 27.9286L29.5714 31.3129C26.3317 30.9647 23.2704 29.6544 20.7821 27.5507L46 2.31643L43.6836 0L0 43.6836L2.31643 46L15.3443 32.9886C20.6671 38.1143 28.3064 42.0243 39.2479 42.7143C39.6943 42.7389 40.1411 42.6721 40.5608 42.518C40.9806 42.3639 41.3644 42.1258 41.6889 41.8182C42.0134 41.5106 42.2718 41.14 42.4481 40.7291C42.6244 40.3183 42.715 39.8757 42.7143 39.4286V31.8879C42.7116 31.2326 42.5131 30.5931 42.1443 30.0515C41.7754 29.5099 41.253 29.091 40.6443 28.8486Z" fill="white"/>
<path d="M9.99962 27L15.9193 21.0465C15.2817 19.6021 14.8187 18.086 14.5403 16.5307L18.0215 13.0296C18.4839 12.562 18.8002 11.9687 18.9317 11.3226C19.0632 10.6766 19.004 10.006 18.7615 9.39328L17.0797 5.13114C16.8305 4.50174 16.3991 3.96211 15.8414 3.58215C15.2836 3.20219 14.6253 2.99941 13.9517 3.00006H6.38389C5.90926 2.99716 5.43939 3.09533 5.00518 3.2881C4.57097 3.48087 4.18223 3.76388 3.86454 4.11853C3.54685 4.47318 3.30739 4.89143 3.1619 5.3458C3.01642 5.80017 2.9682 6.28036 3.02042 6.75481C3.83478 13.938 6.21804 20.8514 9.99962 27Z" fill="white"/>
</svg>
