<svg width="22" height="27" viewBox="0 0 29 46" fill="none" xmlns="http://www.w3.org/2000/svg">
<path d="M5.65 8.47501C5.65 6.22729 6.5429 4.07164 8.13227 2.48227C9.72164 0.8929 11.8773 0 14.125 0C16.3727 0 18.5284 0.8929 20.1177 2.48227C21.7071 4.07164 22.6 6.22729 22.6 8.47501V22.6C22.6 24.8477 21.7071 27.0034 20.1177 28.5927C18.5284 30.1821 16.3727 31.075 14.125 31.075C11.8773 31.075 9.72164 30.1821 8.13227 28.5927C6.5429 27.0034 5.65 24.8477 5.65 22.6V8.47501Z" fill="#FF004D"/>
<path fill-rule="evenodd" clip-rule="evenodd" d="M1.4125 18.3625C1.78712 18.3625 2.14639 18.5113 2.41129 18.7762C2.67618 19.0411 2.825 19.4004 2.825 19.775V22.6C2.825 25.597 4.01553 28.4712 6.1347 30.5903C8.25386 32.7095 11.1281 33.9 14.125 33.9C17.122 33.9 19.9962 32.7095 22.1153 30.5903C24.2345 28.4712 25.425 25.597 25.425 22.6V19.775C25.425 19.4004 25.5738 19.0411 25.8387 18.7762C26.1036 18.5113 26.4629 18.3625 26.8375 18.3625C27.2121 18.3625 27.5714 18.5113 27.8363 18.7762C28.1012 19.0411 28.25 19.4004 28.25 19.775V22.6C28.2501 26.1017 26.9494 29.4786 24.6005 32.0755C22.2515 34.6724 19.0216 36.3042 15.5375 36.6544V42.375H24.0125C24.3871 42.375 24.7464 42.5238 25.0113 42.7887C25.2762 43.0536 25.425 43.4129 25.425 43.7875C25.425 44.1622 25.2762 44.5214 25.0113 44.7863C24.7464 45.0512 24.3871 45.2 24.0125 45.2H4.2375C3.86288 45.2 3.50361 45.0512 3.23871 44.7863C2.97382 44.5214 2.825 44.1622 2.825 43.7875C2.825 43.4129 2.97382 43.0536 3.23871 42.7887C3.50361 42.5238 3.86288 42.375 4.2375 42.375H12.7125V36.6544C9.22839 36.3042 5.99854 34.6724 3.64956 32.0755C1.30059 29.4786 -4.399e-05 26.1017 1.11589e-09 22.6V19.775C1.11589e-09 19.4004 0.148817 19.0411 0.413712 18.7762C0.678607 18.5113 1.03788 18.3625 1.4125 18.3625Z" fill="#FF004D"/>
</svg>
