<svg width="22" height="27" viewBox="0 0 22 27" fill="none" xmlns="http://www.w3.org/2000/svg">
<path fill-rule="evenodd" clip-rule="evenodd" d="M18.5777 16.1102C18.8737 15.2399 19.0243 14.3268 19.0234 13.4076V11.7321C19.0234 11.51 18.9351 11.2969 18.778 11.1398C18.6209 10.9827 18.4078 10.8944 18.1857 10.8944C17.9635 10.8944 17.7504 10.9827 17.5933 11.1398C17.4362 11.2969 17.3479 11.51 17.3479 11.7321V13.4076C17.3479 13.8667 17.3027 14.3124 17.2139 14.7463L18.5777 16.1102ZM14.3522 18.992C13.3424 19.6622 12.1698 20.046 10.9592 20.1027C9.74863 20.1593 8.54533 19.8866 7.47741 19.3137C6.40949 18.7407 5.51693 17.8888 4.89474 16.8488C4.27254 15.8088 3.944 14.6196 3.94408 13.4076V11.7321C3.94408 11.51 3.85582 11.2969 3.69871 11.1398C3.5416 10.9827 3.32852 10.8944 3.10634 10.8944C2.88416 10.8944 2.67108 10.9827 2.51397 11.1398C2.35686 11.2969 2.2686 11.51 2.2686 11.7321V13.4076C2.26857 15.4844 3.03996 17.4872 4.43312 19.0274C5.82627 20.5676 7.74186 21.5355 9.80826 21.7431V25.136H4.78182C4.55964 25.136 4.34656 25.2242 4.18945 25.3814C4.03234 25.5385 3.94408 25.7515 3.94408 25.9737C3.94408 26.1959 4.03234 26.409 4.18945 26.5661C4.34656 26.7232 4.55964 26.8115 4.78182 26.8115H16.5102C16.7324 26.8115 16.9454 26.7232 17.1026 26.5661C17.2597 26.409 17.3479 26.1959 17.3479 25.9737C17.3479 25.7515 17.2597 25.5385 17.1026 25.3814C16.9454 25.2242 16.7324 25.136 16.5102 25.136H11.4837V21.7431C12.954 21.5977 14.3591 21.064 15.5552 20.1967L14.3522 18.992ZM15.6724 13.2066V5.03023C15.6733 3.83821 15.2506 2.68466 14.4796 1.77552C13.7086 0.866379 12.6397 0.260818 11.4635 0.0669404C10.2874 -0.126937 9.08061 0.103489 8.05864 0.717083C7.03667 1.33068 6.26603 2.2875 5.88429 3.41674L15.6724 13.2049V13.2066ZM5.61956 10.2577L13.1358 17.7739C12.3713 18.2098 11.5058 18.4374 10.6258 18.4338C9.74575 18.4303 8.8821 18.1958 8.12116 17.7537C7.36022 17.3117 6.72867 16.6776 6.28967 15.9149C5.85066 15.1522 5.61959 14.2876 5.61956 13.4076V10.2594V10.2577ZM20.1058 22.3781L0 2.27239L1.18624 1.08615L21.292 21.1919L20.1058 22.3765V22.3781Z" fill="#FF004D"/>
</svg>
