<svg width="40" height="40" viewBox="-3.1 -3 46 46" fill="none" xmlns="http://www.w3.org/2000/svg">
<path d="M26.6684 28.4277L30.1128 24.982C30.5767 24.5236 31.1636 24.2099 31.8023 24.0788C32.4411 23.9477 33.1041 24.005 33.7109 24.2436L37.9088 25.9203C38.522 26.1693 39.0478 26.5944 39.42 27.1419C39.7921 27.6894 39.9939 28.3348 40 28.9969V36.6884C39.9964 37.1388 39.9018 37.5837 39.7218 37.9966C39.5418 38.4094 39.2801 38.7815 38.9526 39.0905C38.625 39.3995 38.2384 39.639 37.8158 39.7946C37.3933 39.9501 36.9437 40.0185 36.4941 39.9957C7.0784 38.1651 1.14298 13.2448 0.0204779 3.70735C-0.0316294 3.239 0.0159797 2.76491 0.160173 2.31629C0.304366 1.86766 0.541875 1.45466 0.857076 1.10446C1.17228 0.754257 1.55802 0.474788 1.98894 0.284438C2.41986 0.0940877 2.88618 -0.00282917 3.35723 6.28686e-05H10.7842C11.4469 0.0020254 12.094 0.202298 12.642 0.575122C13.1901 0.947946 13.6141 1.47627 13.8595 2.09214L15.5356 6.29169C15.782 6.89634 15.8449 7.56023 15.7164 8.20042C15.5878 8.84061 15.2736 9.42872 14.8129 9.89129L11.3685 13.3371C11.3685 13.3371 13.3521 26.7664 26.6684 28.4277Z" fill="#fff"/>
</svg>


