<svg width="26" height="23" viewBox="0 0 42 26" fill="none" xmlns="http://www.w3.org/2000/svg">
<path fill-rule="evenodd" clip-rule="evenodd" d="M0 5.2C0 3.82087 0.547856 2.49823 1.52304 1.52304C2.49823 0.547855 3.82087 3.60132e-08 5.2 3.60132e-08H24.7C25.9612 -0.000148325 27.1795 0.458101 28.128 1.28941C29.0765 2.12072 29.6906 3.26843 29.8558 4.5188L37.9418 0.9256C38.3376 0.749246 38.7712 0.674605 39.2032 0.708462C39.6351 0.742319 40.0518 0.8836 40.4153 1.11946C40.7788 1.35533 41.0775 1.67829 41.2844 2.059C41.4913 2.43971 41.5998 2.8661 41.6 3.2994V22.7006C41.5996 23.1336 41.4911 23.5596 41.2844 23.94C41.0776 24.3204 40.7791 24.6431 40.416 24.8789C40.0529 25.1147 39.6366 25.2561 39.205 25.2902C38.7734 25.3244 38.3401 25.2502 37.9444 25.0744L29.8558 21.4812C29.6906 22.7316 29.0765 23.8793 28.128 24.7106C27.1795 25.5419 25.9612 26.0001 24.7 26H5.2C3.82087 26 2.49823 25.4521 1.52304 24.477C0.547856 23.5018 0 22.1791 0 20.8V5.2Z" fill="#FF004D"/>
</svg>
