<svg width="214" height="200" viewBox="0 0 214 200" fill="none" xmlns="http://www.w3.org/2000/svg">
<path d="M35.8354 145.693C37.2236 147.087 38.2873 148.769 38.9507 150.621C39.6142 152.472 39.861 154.448 39.6737 156.406C38.7338 165.467 36.9518 174.422 34.3509 183.153C53.0073 178.833 64.4017 173.832 69.5773 171.21C72.5129 169.723 75.8936 169.371 79.0726 170.221C88.186 172.65 97.5787 173.873 107.01 173.858C160.452 173.858 200.626 136.318 200.626 93.616C200.626 50.9271 160.452 13.3737 107.01 13.3737C53.569 13.3737 13.3943 50.9271 13.3943 93.616C13.3943 113.249 21.6459 131.464 35.8354 145.693ZM29.2422 197.918C26.0735 198.546 22.8946 199.121 19.7067 199.643C17.032 200.071 14.9992 197.289 16.0557 194.801C17.2432 192.001 18.3316 189.16 19.3189 186.282L19.359 186.149C22.6757 176.52 25.3772 165.446 26.3668 155.135C9.9573 138.685 0.0206299 117.154 0.0206299 93.616C0.0206299 41.9132 47.9253 0 107.01 0C166.095 0 214 41.9132 214 93.616C214 145.319 166.095 187.232 107.01 187.232C96.4137 187.246 85.861 185.87 75.6222 183.14C68.6679 186.657 53.7027 193.063 29.2422 197.918Z" fill="white"/>
</svg>
